HIERARCHY
ROOT Hips
{
	OFFSET -14.64140 90.27770 -84.91600
	CHANNELS 6 Xposition Yposition Zposition Zrotation Xrotation Yrotation
	JOINT Spine
	{
		OFFSET 0.00000 13.20850 -1.60436
		CHANNELS 3 Zrotation Xrotation Yrotation
		JOINT Spine1
		{
			OFFSET 0.00000 8.61716 0.00000
			CHANNELS 3 Zrotation Xrotation Yrotation
			JOINT Spine2
			{
				OFFSET 0.00000 8.61717 0.00000
				CHANNELS 3 Zrotation Xrotation Yrotation
				JOINT Spine3
				{
					OFFSET 0.00000 8.61717 0.00000
					CHANNELS 3 Zrotation Xrotation Yrotation
					JOINT Neck
					{
						OFFSET 0.00000 11.07920 1.10792
						CHANNELS 3 Zrotation Xrotation Yrotation
						JOINT Neck1
						{
							OFFSET 0.00000 7.08032 0.00000
							CHANNELS 3 Zrotation Xrotation Yrotation
							JOINT Head
							{
								OFFSET 0.00000 7.08031 0.00000
								CHANNELS 3 Zrotation Xrotation Yrotation
								End site
								{
									OFFSET 0.00000 0.00000 0.00000
								}
							}
						}
					}
					JOINT RightShoulder
					{
						OFFSET -0.01000 7.91373 5.19711
						CHANNELS 3 Zrotation Xrotation Yrotation
						JOINT RightArm
						{
							OFFSET -18.41580 0.00000 0.00000
							CHANNELS 3 Zrotation Xrotation Yrotation
							JOINT RightForeArm
							{
								OFFSET -29.11090 0.00000 0.00000
								CHANNELS 3 Zrotation Xrotation Yrotation
								JOINT RightHand
								{
									OFFSET -24.65040 0.00000 0.00000
									CHANNELS 3 Zrotation Xrotation Yrotation
									JOINT RightHandThumb1
									{
										OFFSET -5.35114 -0.85590 3.97906
										CHANNELS 3 Zrotation Xrotation Yrotation
										JOINT RightHandThumb2
										{
											OFFSET -4.52789 0.00000 0.00000
											CHANNELS 3 Zrotation Xrotation Yrotation
											JOINT RightHandThumb3
											{
												OFFSET -2.46976 0.00000 0.00000
												CHANNELS 3 Zrotation Xrotation Yrotation
												End site
												{
													OFFSET 0.00000 0.00000 0.00000
												}
											}
										}
									}
									JOINT RightHandIndex1
									{
										OFFSET -14.26970 0.00000 2.88139
										CHANNELS 3 Zrotation Xrotation Yrotation
										JOINT RightHandIndex2
										{
											OFFSET -5.48836 0.00000 0.00000
											CHANNELS 3 Zrotation Xrotation Yrotation
											JOINT RightHandIndex3
											{
												OFFSET -3.01859 0.00000 0.00000
												CHANNELS 3 Zrotation Xrotation Yrotation
												End site
												{
													OFFSET 0.00000 0.00000 0.00000
												}
											}
										}
									}
									JOINT RightHandMiddle1
									{
										OFFSET -14.26970 0.00000 -0.09147
										CHANNELS 3 Zrotation Xrotation Yrotation
										JOINT RightHandMiddle2
										{
											OFFSET -6.17441 0.00000 0.00000
											CHANNELS 3 Zrotation Xrotation Yrotation
											JOINT RightHandMiddle3
											{
												OFFSET -3.56743 0.00000 0.00000
												CHANNELS 3 Zrotation Xrotation Yrotation
												End site
												{
													OFFSET 0.00000 0.00000 0.00000
												}
											}
										}
									}
									JOINT RightHandRing1
									{
										OFFSET -12.69180 0.00000 -3.06433
										CHANNELS 3 Zrotation Xrotation Yrotation
										JOINT RightHandRing2
										{
											OFFSET -5.62556 0.00000 0.00000
											CHANNELS 3 Zrotation Xrotation Yrotation
											JOINT RightHandRing3
											{
												OFFSET -3.56744 0.00000 0.00000
												CHANNELS 3 Zrotation Xrotation Yrotation
												End site
												{
													OFFSET 0.00000 0.00000 0.00000
												}
											}
										}
									}
									JOINT RightHandPinky1
									{
										OFFSET -11.11390 0.00000 -6.03719
										CHANNELS 3 Zrotation Xrotation Yrotation
										JOINT RightHandPinky2
										{
											OFFSET -4.52789 0.00000 0.00000
											CHANNELS 3 Zrotation Xrotation Yrotation
											JOINT RightHandPinky3
											{
												OFFSET -2.46976 0.00000 0.00000
												CHANNELS 3 Zrotation Xrotation Yrotation
												End site
												{
													OFFSET 0.00000 0.00000 0.00000
												}
											}
										}
									}
								}
							}
						}
					}
					JOINT LeftShoulder
					{
						OFFSET 0.01000 7.91373 5.19711
						CHANNELS 3 Zrotation Xrotation Yrotation
						JOINT LeftArm
						{
							OFFSET 18.41580 0.00000 0.00000
							CHANNELS 3 Zrotation Xrotation Yrotation
							JOINT LeftForeArm
							{
								OFFSET 29.11090 0.00000 0.00000
								CHANNELS 3 Zrotation Xrotation Yrotation
								JOINT LeftHand
								{
									OFFSET 24.65040 0.00000 0.00000
									CHANNELS 3 Zrotation Xrotation Yrotation
									JOINT LeftHandThumb1
									{
										OFFSET 5.35114 -0.85590 3.97906
										CHANNELS 3 Zrotation Xrotation Yrotation
										JOINT LeftHandThumb2
										{
											OFFSET 4.52789 0.00000 0.00000
											CHANNELS 3 Zrotation Xrotation Yrotation
											JOINT LeftHandThumb3
											{
												OFFSET 2.46977 0.00000 0.00000
												CHANNELS 3 Zrotation Xrotation Yrotation
												End site
												{
													OFFSET 0.00000 0.00000 0.00000
												}
											}
										}
									}
									JOINT LeftHandIndex1
									{
										OFFSET 14.26970 0.00000 2.88139
										CHANNELS 3 Zrotation Xrotation Yrotation
										JOINT LeftHandIndex2
										{
											OFFSET 5.48836 0.00000 0.00000
											CHANNELS 3 Zrotation Xrotation Yrotation
											JOINT LeftHandIndex3
											{
												OFFSET 3.01859 0.00000 0.00000
												CHANNELS 3 Zrotation Xrotation Yrotation
												End site
												{
													OFFSET 0.00000 0.00000 0.00000
												}
											}
										}
									}
									JOINT LeftHandMiddle1
									{
										OFFSET 14.26970 0.00000 -0.09147
										CHANNELS 3 Zrotation Xrotation Yrotation
										JOINT LeftHandMiddle2
										{
											OFFSET 6.17440 0.00000 0.00000
											CHANNELS 3 Zrotation Xrotation Yrotation
											JOINT LeftHandMiddle3
											{
												OFFSET 3.56744 0.00000 0.00000
												CHANNELS 3 Zrotation Xrotation Yrotation
												End site
												{
													OFFSET 0.00000 0.00000 0.00000
												}
											}
										}
									}
									JOINT LeftHandRing1
									{
										OFFSET 12.69180 0.00000 -3.06433
										CHANNELS 3 Zrotation Xrotation Yrotation
										JOINT LeftHandRing2
										{
											OFFSET 5.62556 0.00000 0.00000
											CHANNELS 3 Zrotation Xrotation Yrotation
											JOINT LeftHandRing3
											{
												OFFSET 3.56744 0.00000 0.00000
												CHANNELS 3 Zrotation Xrotation Yrotation
												End site
												{
													OFFSET 0.00000 0.00000 0.00000
												}
											}
										}
									}
									JOINT LeftHandPinky1
									{
										OFFSET 11.11390 0.00000 -6.03719
										CHANNELS 3 Zrotation Xrotation Yrotation
										JOINT LeftHandPinky2
										{
											OFFSET 4.52789 0.00000 0.00000
											CHANNELS 3 Zrotation Xrotation Yrotation
											JOINT LeftHandPinky3
											{
												OFFSET 2.46976 0.00000 0.00000
												CHANNELS 3 Zrotation Xrotation Yrotation
												End site
												{
													OFFSET 0.00000 0.00000 0.00000
												}
											}
										}
									}
								}
							}
						}
					}
					JOINT pCube4
					{
						OFFSET 0.00000 10.91090 1.10792
						CHANNELS 3 Zrotation Xrotation Yrotation
						End site
						{
							OFFSET 0.00000 0.00000 0.00000
						}
					}
				}
			}
		}
	}
	JOINT RightUpLeg
	{
		OFFSET -9.98441 0.00000 0.00000
		CHANNELS 3 Zrotation Xrotation Yrotation
		JOINT RightLeg
		{
			OFFSET 0.00000 -42.11790 0.00000
			CHANNELS 3 Zrotation Xrotation Yrotation
			JOINT RightFoot
			{
				OFFSET 0.00000 -45.00020 -0.00001
				CHANNELS 3 Zrotation Xrotation Yrotation
				JOINT RightForeFoot
				{
					OFFSET 0.00000 -3.74820 0.00000
					CHANNELS 3 Zrotation Xrotation Yrotation
					JOINT RightToeBase
					{
						OFFSET 0.00000 0.06325 14.43120
						CHANNELS 3 Zrotation Xrotation Yrotation
						End site
						{
							OFFSET 0.00000 0.00000 0.00000
						}
					}
				}
			}
		}
	}
	JOINT LeftUpLeg
	{
		OFFSET 9.98441 0.00000 0.00000
		CHANNELS 3 Zrotation Xrotation Yrotation
		JOINT LeftLeg
		{
			OFFSET 0.00000 -42.11800 0.00000
			CHANNELS 3 Zrotation Xrotation Yrotation
			JOINT LeftFoot
			{
				OFFSET 0.00000 -45.00070 0.00000
				CHANNELS 3 Zrotation Xrotation Yrotation
				JOINT LeftForeFoot
				{
					OFFSET 0.00000 -3.74824 0.00000
					CHANNELS 3 Zrotation Xrotation Yrotation
					JOINT LeftToeBase
					{
						OFFSET 0.00000 0.06325 14.43110
						CHANNELS 3 Zrotation Xrotation Yrotation
						End site
						{
							OFFSET 0.00000 0.00000 0.00000
						}
					}
				}
			}
		}
	}
}
MOTION
Frames: 4
Frame Time: 0.050000
-0.04495488508420535 -0.03675370212087255 0.03531028606824243 0.009367801623329314 0.015124930452386982 0.025826876036378954 -3.1966302219235674 -0.7137241933418121 -0.7097176366337292 -1.0207204617544883 3.5925720930868184 0.40773897271652904 -1.1920362016728883 -2.208612063905918 -1.374468351096934 -0.012873009064779888 0.20324058445237575 -0.8647771477478677 -0.6410108310742146 13.32886871929178 1.8488588087264963 -0.07674975974078654 0.9424454704675786 2.4190043917794615 -0.6074764469205098 -13.08473393087972 0.28447098067559173 -4.871410556345619 1.7403131991962062 -13.887045839375563 66.75280738217843 11.223057827429653 15.297918156154259 27.17583176067696 -1.016735038698198 83.78924568237579 16.429528831189476 -0.4220820443107082 -3.1933505406337703 4.56361607414239 -0.10084967561741992 -1.604618599427671 0.006006775229229897 0.030907026410149474 -56.26476780117369 -0.013842784764570466 -0.04932665616908811 -56.28178597614083 -38.73540259606061 0.01797206266336531 0.031568788937222605 0.009763895594149245 0.03437114147775873 -0.018797954123077866 0.014617290775828837 -0.033500622288963236 0.0212052904998786 -36.706728266335 0.022347858362191074 -0.028381929873103173 0.03614538462566326 -0.027781427596001832 1.1372678747853609e-05 0.016221625022064534 -0.001150799286507513 0.0022593305126678022 -19.80199052000099 0.020911636714939126 0.009237900266038187 -0.014114513000316747 0.003070142485993898 0.021930365147164812 0.005614238428590652 -0.026207126118903634 0.009733945731707256 24.011316699804333 0.02484949167438303 0.028865935258910295 28.871110767433954 -0.016022183923262996 -0.02496058028918136 28.854002895863218 -0.027568539918308956 -0.03936577597884003 7.347726746105257 1.5317390322292503 12.741650433469063 -67.92776903890588 5.608505358691685 -17.97492306572275 -22.221872923494068 -15.221157568914636 -49.111122349087935 -3.7774710556866062 -0.32034969592542933 0.06959304846178288 -0.49453175953644873 0.025550301134273548 -8.138631960076314 -0.0024255213655233515 -0.016146035273902664 44.52043546602334 0.012816988504507567 0.030875870162755243 44.56099826603237 12.426398204728326 -0.010920511669236714 0.012587776521407867 0.04815063049614283 -0.03418929618375035 0.04876206475990994 -0.04355368790203883 -0.025932837675753016 0.015370633626974713 11.10594847869772 0.018002686192576448 0.018155258116458274 0.030267566170474814 -0.015574859863383307 -0.04906711188396399 -0.040132854843201116 -0.044345017235231085 0.02433822776928754 4.780893609037201 0.03983243224943382 0.014473026200105526 0.025935955558906588 -0.01589203528810215 -0.006655669532036999 0.03848795661493288 0.012663950503478452 -0.01095290548232783 -5.638805685339668 -0.015222475618649122 -0.029353088401691083 -6.746723538990657 -0.021007034282482007 0.04128816945538544 -6.719645658038965 0.012371999953269187 0.017941377804018506 -0.015938481860489895 0.005916887359016111 -0.04059450035317412 8.07716108458361 3.542201034117083 -19.265327229337498 0.002514208712593676 10.409403028203215 -0.030311372164136857 -5.6609148242025285 -15.673541720340713 3.1647825949972166 0.012136478789471172 0.04075433025416412 -0.045790289154867735 0.04007739079323342 4.700886467478221 -0.03488415737398027 12.48891854058881 -8.235118728608736 6.912320527090081 0.02899684877988228 46.42566776781041 -0.01620926212803601 -4.362505664983796 -14.795399364543693 -3.862249815150875 0.009734523250167007 0.036494494447506555 -0.0204116868919396 -0.02748575982099752 -10.793034996898234 0.0016753136772772856 
-0.030055745192244063 -0.013948655625741165 -0.0033059107295584445 -0.006458511165731736 -0.04005332275856244 -0.011732210712054852 -2.9350119316867467 -0.75077538513401 -0.7462011851072051 -1.0447774395541471 3.578687958887413 0.41807491440533945 -1.1773750683041044 -2.212224588209617 -1.8934294049971068 0.1519463059636445 0.18833279332164052 -0.9915965184583706 -0.7909012596835884 13.118258586708782 1.9284462107453983 -0.13793915712181143 0.7630730742502515 3.1580442608092314 -0.8053555157017391 -13.400237919992133 0.34659935675458536 -4.731360309414849 1.6806758685452585 -14.217829737829199 67.04459096236418 9.534560886200325 12.255213301975976 28.64794225069229 -1.511070244382375 85.97425325831463 15.875114789021076 -0.4655002896996992 -3.0027206479033866 4.483891972120141 -0.16820293612869713 -1.5749983174253988 -0.04065742035031177 0.04279371309910991 -56.23256396495931 -0.04140746119978752 0.002538682110489513 -56.27846486320833 -38.742903006531634 0.0215366172563051 0.030420490127912123 -0.01690990346137309 -0.027851090185292266 0.008619847775544223 -0.01332578103111157 -0.04567805827108446 0.024633405511625125 -36.70501306827023 0.019664025545835302 -0.03897179635931066 -0.02375983287310659 0.020464414772605015 0.01859504514911424 0.006490456207743551 -0.0449139654550766 -0.0029587412769386 -19.789900142477112 -0.008529511294514751 -0.042912883276974643 0.01569663178535576 0.036031562089418726 0.021657336324515754 -0.005180353420034392 0.001630390827384051 -0.028890353288669134 24.006540830446546 -0.04946692055330337 0.0181586579943089 28.912310632414414 -0.00579041525378762 -0.029662282816628128 28.906817056198268 0.03582939763542762 -0.0365292956462175 7.786297600511596 1.6529153413747888 12.718987269535944 -68.49645873252406 2.379515638334851 -18.75128616918815 -24.09764870715435 -15.571274186548786 -50.36717618814508 -1.7057159352770281 -0.32558799340427597 -0.41055845840156124 -0.4516055596086572 0.06547788834893803 -8.108501561830646 -0.027468102843351258 0.008431940432698721 44.611293334567954 -0.04214259355216394 0.019412149709202745 44.58112191553112 12.425991267009527 -0.04505157528750271 0.023874727814479687 0.006270566675564034 0.04394207594123929 -0.04916573031624745 0.003586237575168052 -0.039798569784453584 0.03751582979967225 11.116894855783867 -0.006516041904672259 -0.01211339087075232 -0.009175217807871507 0.018325916626365134 0.029056782891622022 -0.001097892993526571 0.007984649422418139 0.020635937182425783 4.738238427541127 -0.005569857632413904 -0.019214903323377705 0.007256234152769729 -0.0074812927226607885 -0.04093884243431564 -0.03366616640099908 -0.02496286575566005 0.03906001452697251 -5.6489825677035785 0.039997052342457186 0.026100453840912176 -6.711868240271457 0.007307396188666252 -0.027780824194657664 -6.742671179168331 -0.04471426298651025 -0.0036157958576861376 0.004242671137721657 -0.005671705424435847 -0.04234745413679546 8.050307587881923 3.4802659772940996 -19.249823445428383 -0.027056935494386713 10.413581016097618 0.020316952461029672 -5.623889314591487 -15.62940751481289 3.1633888699240584 0.018967805566460126 -0.006982753321055794 0.016153816647382795 0.028485488898497172 4.735000824374208 0.022945978397279642 12.473473405973431 -8.25737921066702 6.91812335541646 0.022547716129516438 46.4108078871762 0.026889469119732154 -4.344697460446248 -14.72274106220002 -3.8515428397970797 -0.04282059876164154 0.03512234149211039 0.019856517971314273 -0.03274617965031324 -10.75877919629786 0.0015056252845178308 
-0.007724582713075677 -0.008265153623887633 -0.037048032425026044 -0.03120549667663948 0.016996481795361874 0.03406774254767656 -2.7950711770075194 -0.6495841264759465 -0.8393001583040546 -1.0443029722687012 3.6131456633192593 0.40839734298094277 -1.1539721064900068 -2.174903073858377 -2.202200788776882 0.24525367753656857 0.24709738612761784 -0.9713350517961041 -0.8309679155313042 12.845215697807992 2.0330396094281475 -0.2114992579312617 0.546624776917419 3.7528497435605996 -0.9330938392098801 -13.834880180339466 0.39985383240589156 -4.7113046498903515 1.68982812923587 -14.663092375319641 67.68851057639459 8.453305175918358 9.133332905280115 29.309857743571854 -2.1870012480028054 87.99468025157748 15.563718549263779 -0.46155234758528996 -2.935796563620091 4.543057275497528 -0.10776270368934053 -1.6050918209948386 -0.024426003156234315 -0.00927885464694743 -56.27376473747406 0.019434497936342714 -0.030179208648214828 -56.18716099862739 -38.747923691044384 -0.015139698782217607 0.0014029775738680337 -0.00580195190822663 0.02439434881407866 0.010658131783903698 0.02557401843634083 0.00026981627842069826 0.04993359329208872 -36.711252959280245 -0.02588632991753488 0.03175485520348353 -0.04014681669256526 0.03250086834094916 -0.03023168868762197 -0.005674484539598779 0.031363246805188025 0.006253497807360225 -19.724122476128173 -0.0074296569865014974 0.04101791995347481 0.007872732816918047 0.0478808715098259 0.006804661812048725 -0.023212215909592823 -0.0377526948569811 0.03819474230390561 24.092212483969707 -0.004249229938439776 0.007291129563662283 28.88433720883059 -0.0443137771003823 0.04491117561019426 28.90636901241253 -0.04250794649377886 0.013374804467162748 8.069260584922764 1.6848460942894952 12.820340218766932 -69.42834399677322 0.9131894105774664 -18.315758364963557 -25.52579091927966 -15.312664687366883 -51.78828956935594 -0.2319425958075629 -0.2167066463539788 -0.7285056869475147 -0.4499972530900883 0.07586477493863511 -8.117419536506553 0.021394629340768676 -0.01182784830526828 44.56228136152281 -0.010269869355815916 0.025738872110623624 44.5577970256308 12.493739275558866 -0.009666623357298072 0.0034259206514102494 0.004870878799745885 -0.020231066888019653 0.020677729572193403 0.0446878474451614 0.015492727313848896 0.03816362123510162 11.145764501381986 -0.019304854306439353 0.0419485521638521 0.024903608694522735 0.03632424251809242 -0.016687593225548344 0.011471363446111433 -0.030417693373861722 0.0236002500688387 4.81925382304842 -0.026542565487675546 -0.02470026344459309 -0.046435162335573654 0.033534003271872975 -0.0046593845053613196 0.021189867496552637 -0.03373998476975795 -0.015914828449638412 -5.553131800689484 -0.006195849350198838 -0.014994620785135838 -6.730408345818256 0.025435440063136687 0.04866535899229826 -6.714952095926796 0.016734060231856904 0.02190270318875903 0.003757694299894609 -0.03222385169172185 -0.003872859231800844 8.0213133223468 3.49314602454239 -19.235252285241177 -0.032186699436813224 10.371332648363174 -0.0002964993785280444 -5.606277451372067 -15.643347685442933 3.1716152244758864 0.027132133832685115 -0.039768127860364336 0.004591520516279321 0.03473948936509338 4.6581214227635215 -0.008999559709211161 12.43951920037297 -8.215599355035355 6.83626631084353 -0.009459046243455097 46.41683057423081 -0.0157018895901607 -4.341590709383649 -14.734878380115454 -3.8256882487215593 -0.011026877453470436 0.029038809342414814 0.01711490760920951 -0.017665037602734933 -10.781886248047943 0.04051351728143645 
-0.007710470261417562 -0.03577264329465307 -0.04670612156439237 0.036951721227196116 0.003545902062561425 0.019490220548792982 -2.6219635528036322 -0.5256534844521917 -0.8088527436585541 -1.0258792180049996 3.582192042060975 0.40637112590664204 -1.11730837860438 -2.121570634760013 -2.436552958276669 0.2925449134404189 0.24457801299447082 -1.0044958719398849 -0.9276576134956491 12.749951414168528 2.145299545290064 -0.29230777873848096 0.33085171948166725 4.064730356776556 -0.9540844759821901 -14.256137089218626 0.3700755231775356 -4.631997466195361 1.647818711708397 -15.076370760580497 68.52501551179579 8.21067224078852 6.237041621932974 28.61044263098922 -2.6537366205455495 89.30164173309572 15.578525130771247 -0.49321053652715646 -2.8570391437490295 4.535101946582458 -0.12006542291473749 -1.5860089813454672 -0.022241950411701593 -0.03555241728201835 -56.228199797978235 0.016376283895556086 -0.04533860407353364 -56.255785612263196 -38.797491964227554 0.03505307187353776 0.026200498868070052 0.015230857683892998 -0.0040683110736532664 -0.03893078108489882 0.026488456052289826 -0.025050350860826017 -0.00878889685196353 -36.65902513651485 0.021626539807070022 -0.012864868326306336 0.016532507379826235 0.01568012351973762 -0.02209803624384144 0.020690444001056442 -0.021204968218587753 0.007551535605214533 -19.7459176942941 -0.0417338665178912 0.031686415617633766 -0.03507558715774608 0.04219003169694956 0.0038346696557432134 -0.028043618286446196 -0.026723113217734573 0.0188226381421412 24.059605524184626 0.009886116502517917 -0.03975886904184677 28.825389105182825 0.04276106349624577 0.024307894526624355 28.913885475634086 0.03906872473353169 -0.0022383378607462173 8.127019788014609 1.6485835027207203 12.862974748690355 -70.50312861437645 1.2647666682236376 -16.787799927578007 -26.745241779663726 -14.28244399418364 -53.461565851342314 0.48645636246234525 -0.08389326522536737 -1.0162874854709232 -0.439458907412404 0.02101530183898924 -8.109033489637902 -0.022890791935459186 -0.035527286020401776 44.60366937547448 0.0005987448625550371 -0.03883218713276801 44.57431238817509 12.492488999110131 0.0210556165656491 -0.03468901698333503 0.03142384603593989 0.022600161537360133 -0.043129532180347964 0.03093111305269768 -0.03571233768008118 -0.017855196867696866 11.084536370592645 0.017874994706184415 0.0010334505298366333 0.04906409542070632 -0.04714350656574724 0.0005149438515092829 0.0010305784273935228 0.0029968504121396806 0.04042528958452818 4.800631788313184 0.0006299839528652005 0.007362154668364357 0.014634977579600155 0.013033921362108711 0.04003397140161103 0.022351696515946314 0.01635564893518361 -0.024905188046457957 -5.57829467673448 0.030983160352413372 -0.043776199013397764 -6.723234989181084 0.004903178561720545 0.01968683476171222 -6.71241685045278 -0.04783659137708416 -0.015153928576724545 0.027322114598163885 0.03421559794358046 0.005572129332609179 8.04949931491921 3.524550596904802 -19.190951896984018 0.012041635870952467 10.381166350888396 -0.018128499133582176 -5.6636717329365425 -15.629213499989072 3.1978038233979076 -0.0342804352539728 -0.0006273618281584781 -0.044910927575921494 0.03687736069554847 4.714400093695942 0.03198455506457076 12.456643429632622 -8.247521310153365 6.893100150684513 0.0006459527652108296 46.374582563680285 0.04350653578970478 -4.284419756588939 -14.796613967614581 -3.8093232082595923 0.04676321828105575 0.03161875266644478 -0.042333436828961055 0.03357167252609582 -10.737502561543922 0.031376985232858444 
